<mxfile host="Electron" modified="2024-05-19T07:37:34.897Z" agent="Mozilla/5.0 (Windows NT 10.0; Win64; x64) AppleWebKit/537.36 (KHTML, like Gecko) draw.io/24.4.0 Chrome/120.0.6099.109 Electron/28.1.0 Safari/537.36" etag="EbHswdrw4O4LNIflPjJo" version="24.4.0" type="device">
  <diagram name="Page-1" id="F44n_vsHZMKWY91Ir1mV">
    <mxGraphModel dx="1022" dy="592" grid="0" gridSize="10" guides="1" tooltips="1" connect="1" arrows="1" fold="1" page="1" pageScale="1" pageWidth="850" pageHeight="1100" math="0" shadow="0">
      <root>
        <mxCell id="0" />
        <mxCell id="1" parent="0" />
        <mxCell id="0ayQ4EvFOmIjWNBUdSra-10" value="" style="rounded=0;whiteSpace=wrap;html=1;" vertex="1" parent="1">
          <mxGeometry width="850" height="233" as="geometry" />
        </mxCell>
        <mxCell id="0ayQ4EvFOmIjWNBUdSra-1" value="" style="verticalLabelPosition=bottom;shadow=0;dashed=0;align=center;html=1;verticalAlign=top;strokeWidth=1;shape=mxgraph.mockup.graphics.simpleIcon;strokeColor=#999999;" vertex="1" parent="1">
          <mxGeometry x="40" y="40" width="250" height="150" as="geometry" />
        </mxCell>
        <mxCell id="0ayQ4EvFOmIjWNBUdSra-2" value="&lt;p style=&quot;line-height: 120%; font-size: 15px;&quot;&gt;Home&lt;/p&gt;" style="text;html=1;align=center;verticalAlign=middle;resizable=0;points=[];autosize=1;strokeColor=none;fillColor=none;fontStyle=0;fontSize=15;" vertex="1" parent="1">
          <mxGeometry x="452" y="85" width="58" height="60" as="geometry" />
        </mxCell>
        <mxCell id="0ayQ4EvFOmIjWNBUdSra-4" value="Recipes" style="text;html=1;align=center;verticalAlign=middle;resizable=0;points=[];autosize=1;strokeColor=none;fillColor=none;fontStyle=0;fontSize=15;" vertex="1" parent="1">
          <mxGeometry x="540" y="100" width="72" height="30" as="geometry" />
        </mxCell>
        <mxCell id="0ayQ4EvFOmIjWNBUdSra-5" value="" style="endArrow=none;html=1;rounded=0;" edge="1" parent="1">
          <mxGeometry width="50" height="50" relative="1" as="geometry">
            <mxPoint x="523" y="133" as="sourcePoint" />
            <mxPoint x="523" y="97" as="targetPoint" />
          </mxGeometry>
        </mxCell>
        <mxCell id="0ayQ4EvFOmIjWNBUdSra-6" value="" style="endArrow=none;html=1;rounded=0;" edge="1" parent="1">
          <mxGeometry width="50" height="50" relative="1" as="geometry">
            <mxPoint x="628" y="133" as="sourcePoint" />
            <mxPoint x="628" y="97" as="targetPoint" />
          </mxGeometry>
        </mxCell>
        <mxCell id="0ayQ4EvFOmIjWNBUdSra-7" value="Contact" style="text;html=1;align=center;verticalAlign=middle;resizable=0;points=[];autosize=1;strokeColor=none;fillColor=none;fontStyle=0;fontSize=15;" vertex="1" parent="1">
          <mxGeometry x="757" y="100" width="70" height="30" as="geometry" />
        </mxCell>
        <mxCell id="0ayQ4EvFOmIjWNBUdSra-8" value="" style="endArrow=none;html=1;rounded=0;" edge="1" parent="1">
          <mxGeometry width="50" height="50" relative="1" as="geometry">
            <mxPoint x="745" y="133" as="sourcePoint" />
            <mxPoint x="745" y="97" as="targetPoint" />
          </mxGeometry>
        </mxCell>
        <mxCell id="0ayQ4EvFOmIjWNBUdSra-9" value="Randomizer" style="text;html=1;align=center;verticalAlign=middle;resizable=0;points=[];autosize=1;strokeColor=none;fillColor=none;fontStyle=0;fontSize=15;" vertex="1" parent="1">
          <mxGeometry x="635" y="100" width="99" height="30" as="geometry" />
        </mxCell>
        <mxCell id="0ayQ4EvFOmIjWNBUdSra-12" value="" style="verticalLabelPosition=bottom;shadow=0;dashed=0;align=center;html=1;verticalAlign=top;strokeWidth=1;shape=mxgraph.mockup.graphics.simpleIcon;strokeColor=#999999;" vertex="1" parent="1">
          <mxGeometry y="233" width="850" height="325" as="geometry" />
        </mxCell>
        <mxCell id="0ayQ4EvFOmIjWNBUdSra-13" value="" style="verticalLabelPosition=bottom;shadow=0;dashed=0;align=center;html=1;verticalAlign=top;strokeWidth=1;shape=mxgraph.mockup.graphics.simpleIcon;strokeColor=#999999;" vertex="1" parent="1">
          <mxGeometry x="222" y="706" width="216" height="262" as="geometry" />
        </mxCell>
        <mxCell id="0ayQ4EvFOmIjWNBUdSra-14" value="" style="rounded=0;whiteSpace=wrap;html=1;" vertex="1" parent="1">
          <mxGeometry y="610" width="850" height="434" as="geometry" />
        </mxCell>
        <mxCell id="0ayQ4EvFOmIjWNBUdSra-16" value="Look up Recipes" style="strokeWidth=1;shadow=0;dashed=0;align=center;html=1;shape=mxgraph.mockup.buttons.button;strokeColor=#666666;fontColor=#ffffff;mainText=;buttonStyle=round;fontSize=17;fontStyle=1;fillColor=#008cff;whiteSpace=wrap;" vertex="1" parent="1">
          <mxGeometry x="336" y="434" width="179" height="51" as="geometry" />
        </mxCell>
        <mxCell id="0ayQ4EvFOmIjWNBUdSra-18" value="&lt;span style=&quot;font-size: 32px;&quot;&gt;Home Chef&lt;/span&gt;" style="text;strokeColor=none;fillColor=none;html=1;fontSize=24;fontStyle=1;verticalAlign=middle;align=center;fontFamily=Verdana;" vertex="1" parent="1">
          <mxGeometry x="279.5" y="331" width="287" height="41" as="geometry" />
        </mxCell>
        <mxCell id="0ayQ4EvFOmIjWNBUdSra-19" value="Haven" style="text;strokeColor=none;fillColor=none;html=1;fontSize=24;fontStyle=1;verticalAlign=middle;align=center;" vertex="1" parent="1">
          <mxGeometry x="373" y="372" width="100" height="40" as="geometry" />
        </mxCell>
        <mxCell id="0ayQ4EvFOmIjWNBUdSra-20" value="" style="verticalLabelPosition=bottom;shadow=0;dashed=0;align=center;html=1;verticalAlign=top;strokeWidth=1;shape=mxgraph.mockup.graphics.simpleIcon;strokeColor=#999999;" vertex="1" parent="1">
          <mxGeometry x="69.5" y="659" width="191" height="246" as="geometry" />
        </mxCell>
        <mxCell id="0ayQ4EvFOmIjWNBUdSra-21" value="" style="verticalLabelPosition=bottom;shadow=0;dashed=0;align=center;html=1;verticalAlign=top;strokeWidth=1;shape=mxgraph.mockup.graphics.simpleIcon;strokeColor=#999999;" vertex="1" parent="1">
          <mxGeometry x="349" y="659" width="191" height="246" as="geometry" />
        </mxCell>
        <mxCell id="0ayQ4EvFOmIjWNBUdSra-22" value="" style="verticalLabelPosition=bottom;shadow=0;dashed=0;align=center;html=1;verticalAlign=top;strokeWidth=1;shape=mxgraph.mockup.graphics.simpleIcon;strokeColor=#999999;" vertex="1" parent="1">
          <mxGeometry x="626" y="659" width="191" height="246" as="geometry" />
        </mxCell>
        <mxCell id="0ayQ4EvFOmIjWNBUdSra-23" value="" style="rounded=0;whiteSpace=wrap;html=1;" vertex="1" parent="1">
          <mxGeometry y="1044" width="850" height="55" as="geometry" />
        </mxCell>
        <mxCell id="0ayQ4EvFOmIjWNBUdSra-24" value="All rights reserved" style="text;html=1;align=center;verticalAlign=middle;whiteSpace=wrap;rounded=0;" vertex="1" parent="1">
          <mxGeometry x="345" y="1056.5" width="160" height="30" as="geometry" />
        </mxCell>
      </root>
    </mxGraphModel>
  </diagram>
</mxfile>
